<svg width="100" height="104" viewBox="0 0 100 104" fill="none" xmlns="http://www.w3.org/2000/svg">
<mask id="path-1-inside-1_1_157" fill="white">
<path fill-rule="evenodd" clip-rule="evenodd" d="M60.7735 3.47177C62.1876 3.18232 63.6518 3.0303 65.1515 3.0303C74.9612 3.0303 83.2517 9.53427 85.9462 18.4652C87.0746 17.6486 88.4348 17.1717 89.899 17.1717C93.804 17.1717 96.9697 20.5635 96.9697 24.7475C96.9697 26.4782 96.428 28.0734 95.5163 29.3491C98.3015 32.1321 100 35.8347 100 39.899C100 44.2429 98.0597 48.1737 94.9262 51.0101C98.0597 53.8465 100 57.7773 100 62.1212C100 68.4702 95.8551 73.9366 89.8979 76.3935C89.8327 80.5171 86.6925 83.8384 82.8283 83.8384C80.5147 83.8384 78.4607 82.6479 77.1707 80.8074C74.1249 83.3189 70.0866 84.8485 65.6566 84.8485C60.3016 84.8485 55.5192 82.6136 52.37 79.111C49.7779 80.2039 46.9292 80.8081 43.9394 80.8081C41.5117 80.8081 39.177 80.4097 36.9972 79.6748C33.8544 82.8516 29.3042 84.8485 24.2424 84.8485C14.7587 84.8485 7.07071 77.8388 7.07071 69.1919C7.07071 67.1975 7.47972 65.2901 8.22544 63.5358C7.84968 63.602 7.46394 63.6364 7.07071 63.6364C3.16566 63.6364 0 60.2446 0 56.0606C0 51.8766 3.16566 48.4848 7.07071 48.4848C8.15583 48.4848 9.18386 48.7467 10.1027 49.2148C10.1016 49.1399 10.101 49.065 10.101 48.9899C10.101 48.0718 10.1877 47.1722 10.354 46.2974C8.38033 44.9535 7.07071 42.5901 7.07071 39.899C7.07071 37.2448 8.3447 34.9093 10.2733 33.5564C10.1596 32.6563 10.101 31.739 10.101 30.8081C10.101 18.9825 19.5529 9.36448 31.3142 9.09664C35.2534 3.58938 41.7025 0 48.9899 0C53.3336 0 57.3795 1.27525 60.7735 3.47177Z"/>
</mask>
<path fill-rule="evenodd" clip-rule="evenodd" d="M60.7735 3.47177C62.1876 3.18232 63.6518 3.0303 65.1515 3.0303C74.9612 3.0303 83.2517 9.53427 85.9462 18.4652C87.0746 17.6486 88.4348 17.1717 89.899 17.1717C93.804 17.1717 96.9697 20.5635 96.9697 24.7475C96.9697 26.4782 96.428 28.0734 95.5163 29.3491C98.3015 32.1321 100 35.8347 100 39.899C100 44.2429 98.0597 48.1737 94.9262 51.0101C98.0597 53.8465 100 57.7773 100 62.1212C100 68.4702 95.8551 73.9366 89.8979 76.3935C89.8327 80.5171 86.6925 83.8384 82.8283 83.8384C80.5147 83.8384 78.4607 82.6479 77.1707 80.8074C74.1249 83.3189 70.0866 84.8485 65.6566 84.8485C60.3016 84.8485 55.5192 82.6136 52.37 79.111C49.7779 80.2039 46.9292 80.8081 43.9394 80.8081C41.5117 80.8081 39.177 80.4097 36.9972 79.6748C33.8544 82.8516 29.3042 84.8485 24.2424 84.8485C14.7587 84.8485 7.07071 77.8388 7.07071 69.1919C7.07071 67.1975 7.47972 65.2901 8.22544 63.5358C7.84968 63.602 7.46394 63.6364 7.07071 63.6364C3.16566 63.6364 0 60.2446 0 56.0606C0 51.8766 3.16566 48.4848 7.07071 48.4848C8.15583 48.4848 9.18386 48.7467 10.1027 49.2148C10.1016 49.1399 10.101 49.065 10.101 48.9899C10.101 48.0718 10.1877 47.1722 10.354 46.2974C8.38033 44.9535 7.07071 42.5901 7.07071 39.899C7.07071 37.2448 8.3447 34.9093 10.2733 33.5564C10.1596 32.6563 10.101 31.739 10.101 30.8081C10.101 18.9825 19.5529 9.36448 31.3142 9.09664C35.2534 3.58938 41.7025 0 48.9899 0C53.3336 0 57.3795 1.27525 60.7735 3.47177Z" fill="#D9D9D9"/>
<path d="M60.7735 3.47177L60.2247 4.31978L60.5714 4.54418L60.9761 4.46136L60.7735 3.47177ZM85.9462 18.4652L84.9791 18.757L85.389 20.1153L86.5384 19.2835L85.9462 18.4652ZM95.5163 29.3491L94.6945 28.7618L94.1967 29.4584L94.8024 30.0636L95.5163 29.3491ZM94.9262 51.0101L94.2484 50.2612L93.421 51.0101L94.2484 51.759L94.9262 51.0101ZM89.8979 76.3935L89.5128 75.4597L88.8985 75.7131L88.888 76.3776L89.8979 76.3935ZM77.1707 80.8074L77.9979 80.2277L77.3709 79.3331L76.5281 80.0281L77.1707 80.8074ZM52.37 79.111L53.1212 78.4357L52.6403 77.9009L51.9776 78.1803L52.37 79.111ZM36.9972 79.6748L37.3199 78.7177L36.7225 78.5162L36.2791 78.9644L36.9972 79.6748ZM8.22544 63.5358L9.15504 63.931L9.88299 62.2185L8.05036 62.541L8.22544 63.5358ZM10.1027 49.2148L9.6443 50.1148L11.1386 50.876L11.1127 49.1992L10.1027 49.2148ZM10.354 46.2974L11.3463 46.486L11.47 45.8353L10.9225 45.4625L10.354 46.2974ZM10.2733 33.5564L10.8534 34.3833L11.3517 34.0337L11.2754 33.4298L10.2733 33.5564ZM31.3142 9.09664L31.3372 10.1065L31.842 10.095L32.1358 9.68429L31.3142 9.09664ZM65.1515 2.0202C63.5834 2.0202 62.0514 2.17917 60.571 2.48219L60.9761 4.46136C62.3239 4.18547 63.7203 4.04041 65.1515 4.04041V2.0202ZM86.9132 18.1734C84.0937 8.82788 75.4189 2.0202 65.1515 2.0202V4.04041C74.5034 4.04041 82.4098 10.2407 84.9791 18.757L86.9132 18.1734ZM89.899 16.1616C88.2104 16.1616 86.6449 16.7126 85.354 17.6469L86.5384 19.2835C87.5042 18.5845 88.6592 18.1818 89.899 18.1818V16.1616ZM97.9798 24.7475C97.9798 20.0724 94.4264 16.1616 89.899 16.1616V18.1818C93.1817 18.1818 95.9596 21.0546 95.9596 24.7475H97.9798ZM96.3381 29.9364C97.3713 28.4908 97.9798 26.6906 97.9798 24.7475H95.9596C95.9596 26.2659 95.4847 27.6561 94.6945 28.7618L96.3381 29.9364ZM101.01 39.899C101.01 35.5432 99.1878 31.5898 96.2303 28.6346L94.8024 30.0636C97.4151 32.6744 98.9899 36.1261 98.9899 39.899H101.01ZM95.6041 51.759C98.9282 48.75 101.01 44.5554 101.01 39.899H98.9899C98.9899 43.9305 97.1912 47.5974 94.2484 50.2612L95.6041 51.759ZM94.2484 51.759C97.1912 54.4228 98.9899 58.0897 98.9899 62.1212H101.01C101.01 57.4649 98.9282 53.2702 95.6041 50.2612L94.2484 51.759ZM98.9899 62.1212C98.9899 68.0053 95.1462 73.1364 89.5128 75.4597L90.2831 77.3273C96.5641 74.7369 101.01 68.9352 101.01 62.1212H98.9899ZM82.8283 84.8485C87.308 84.8485 90.835 81.0185 90.9079 76.4095L88.888 76.3776C88.8304 80.0157 86.077 82.8283 82.8283 82.8283V84.8485ZM76.3436 81.3872C77.8038 83.4706 80.1539 84.8485 82.8283 84.8485V82.8283C80.8755 82.8283 79.1176 81.8252 77.9979 80.2277L76.3436 81.3872ZM65.6566 85.8586C70.32 85.8586 74.5857 84.2482 77.8133 81.5867L76.5281 80.0281C73.6641 82.3897 69.8533 83.8384 65.6566 83.8384V85.8586ZM51.6189 79.7864C54.9632 83.5061 60.0206 85.8586 65.6566 85.8586V83.8384C60.5826 83.8384 56.0751 81.7211 53.1212 78.4357L51.6189 79.7864ZM43.9394 81.8182C47.0664 81.8182 50.0483 81.1861 52.7624 80.0418L51.9776 78.1803C49.5074 79.2217 46.792 79.798 43.9394 79.798V81.8182ZM36.6745 80.632C38.9569 81.4015 41.4005 81.8182 43.9394 81.8182V79.798C41.6228 79.798 39.3971 79.418 37.3199 78.7177L36.6745 80.632ZM24.2424 85.8586C29.5702 85.8586 34.3801 83.7565 37.7152 80.3852L36.2791 78.9644C33.3286 81.9468 29.0381 83.8384 24.2424 83.8384V85.8586ZM6.06061 69.1919C6.06061 78.4825 14.2907 85.8586 24.2424 85.8586V83.8384C15.2268 83.8384 8.08081 77.1952 8.08081 69.1919H6.06061ZM7.29584 63.1407C6.49857 65.0163 6.06061 67.0577 6.06061 69.1919H8.08081C8.08081 67.3372 8.46087 65.564 9.15504 63.931L7.29584 63.1407ZM7.07071 64.6465C7.52299 64.6465 7.9673 64.6069 8.40052 64.5306L8.05036 62.541C7.73206 62.597 7.4049 62.6263 7.07071 62.6263V64.6465ZM-1.0101 56.0606C-1.0101 60.7357 2.54329 64.6465 7.07071 64.6465V62.6263C3.78803 62.6263 1.0101 59.7535 1.0101 56.0606H-1.0101ZM7.07071 47.4747C2.54329 47.4747 -1.0101 51.3855 -1.0101 56.0606H1.0101C1.0101 52.3677 3.78803 49.4949 7.07071 49.4949V47.4747ZM10.5612 48.3147C9.50535 47.7769 8.32075 47.4747 7.07071 47.4747V49.4949C7.99092 49.4949 8.86238 49.7166 9.6443 50.1148L10.5612 48.3147ZM9.09091 48.9899C9.09091 49.0702 9.09153 49.1503 9.09276 49.2304L11.1127 49.1992C11.1117 49.1296 11.1111 49.0598 11.1111 48.9899H9.09091ZM9.36164 46.1088C9.18362 47.0452 9.09091 48.008 9.09091 48.9899H11.1111C11.1111 48.1356 11.1917 47.2991 11.3463 46.486L9.36164 46.1088ZM6.06061 39.899C6.06061 42.9187 7.53094 45.5971 9.78545 47.1323L10.9225 45.4625C9.22972 44.3098 8.08081 42.2615 8.08081 39.899H6.06061ZM9.69315 32.7295C7.491 34.2743 6.06061 36.9205 6.06061 39.899H8.08081C8.08081 37.569 9.1984 35.5443 10.8534 34.3833L9.69315 32.7295ZM9.09091 30.8081C9.09091 31.7814 9.15216 32.741 9.27111 33.6829L11.2754 33.4298C11.167 32.5716 11.1111 31.6966 11.1111 30.8081H9.09091ZM31.2912 8.08681C18.9824 8.3671 9.09091 18.4323 9.09091 30.8081H11.1111C11.1111 19.5326 20.1234 10.3618 31.3372 10.1065L31.2912 8.08681ZM48.9899 -1.0101C41.3627 -1.0101 34.6133 2.74799 30.4926 8.50899L32.1358 9.68429C35.8935 4.43077 42.0422 1.0101 48.9899 1.0101V-1.0101ZM61.3223 2.62377C57.7697 0.324633 53.5341 -1.0101 48.9899 -1.0101V1.0101C53.1331 1.0101 56.9892 2.22586 60.2247 4.31978L61.3223 2.62377Z" fill="black" mask="url(#path-1-inside-1_1_157)"/>
<path d="M78.3145 65.4561C78.3145 108.822 61.1427 103.727 53.567 103.727C45.9912 103.727 28.8195 108.822 28.8195 65.4561C28.8195 22.0904 39.8993 26.0437 53.567 26.0437C67.2346 26.0437 78.3145 22.0904 78.3145 65.4561Z" fill="#333333"/>
<path d="M72.2539 48.3998C72.2539 65.9204 63.8875 68.3739 53.567 68.3739C43.2465 68.3739 34.8801 65.9204 34.8801 48.3998C34.8801 30.8792 43.2465 34.3003 53.567 34.3003C63.8875 34.3003 72.2539 30.8792 72.2539 48.3998Z" fill="#D9D9D9"/>
<path d="M76.2943 66.7232C76.2943 76.6662 66.1189 75.3915 53.567 75.3915C41.0151 75.3915 30.8397 76.6662 30.8397 66.7232C30.8397 56.7802 41.0151 36.0507 53.567 36.0507C66.1189 36.0507 76.2943 56.7802 76.2943 66.7232Z" fill="#D9D9D9"/>
<path d="M78.6328 55.1987L78.4841 55.2979C78.0626 55.5789 77.8094 56.0519 77.8094 56.5585V65.6334C77.8094 65.731 77.9494 65.747 77.9714 65.6518L79.3246 59.7881L80.4923 56.6742C80.6958 56.1316 80.4986 55.5202 80.0163 55.1987C79.5974 54.9195 79.0517 54.9195 78.6328 55.1987Z" fill="#D9D9D9" stroke="#333333" stroke-width="1.0101"/>
<path d="M28.5012 55.7038L28.6499 55.8029C29.0714 56.0839 29.3246 56.557 29.3246 57.0636V65.8806C29.3246 66.0132 29.1344 66.0348 29.1046 65.9057L27.8094 60.2931L26.6417 57.1793C26.4382 56.6366 26.6354 56.0253 27.1177 55.7038C27.5366 55.4245 28.0823 55.4245 28.5012 55.7038Z" fill="#D9D9D9" stroke="#333333" stroke-width="1.0101"/>
<path d="M30.3849 46.3861L29.4125 46.6344L33.3485 23.0181C46.1685 18.4245 60.195 17.9646 73.3044 21.652L77.219 45.6289L75.9745 45.3697C60.8992 42.229 45.3053 42.5767 30.3849 46.3861Z" fill="#FA9000"/>
<path d="M29.3246 46.6568L30.3849 46.3861C45.3053 42.5767 60.8992 42.229 75.9745 45.3697L77.3044 45.6467M33.0621 23.1215C46.0614 18.3945 60.3211 17.9295 73.6177 21.741M33.365 22.9195L29.3246 47.1619M73.264 21.4043L77.3044 46.1518" stroke="black" stroke-width="1.0101"/>
<path d="M29.8296 45.6467V45.6467C45.0419 41.6782 61.0692 41.2897 76.4464 44.5615L76.7993 44.6366" stroke="black" stroke-width="2.0202"/>
<path fill-rule="evenodd" clip-rule="evenodd" d="M32.8843 22.7643L30.6247 29.769C28.7996 35.427 27.8509 41.3301 27.8107 47.2735L25.2528 52.9699H31.3762L28.8208 47.2793C28.8603 41.4393 29.7926 35.6388 31.5861 30.0791L33.8456 23.0744L32.8843 22.7643Z" fill="#222222"/>
<circle cx="62.6579" cy="57.7679" r="6.56566" fill="black"/>
<circle cx="43.466" cy="57.7679" r="6.56566" fill="black"/>
<path d="M48.5165 72.4143V72.4143C48.2471 73.2226 48.74 74.0856 49.5731 74.2641L49.8788 74.3296C50.1984 74.3981 50.531 74.3735 50.8371 74.2587L51.6207 73.9649C52.5557 73.6143 53.5798 73.5798 54.5363 73.8667L55.8092 74.2486C56.2085 74.3684 56.6379 74.3381 57.0165 74.1634L57.5921 73.8977C58.1532 73.6387 58.3888 72.967 58.1124 72.4143V72.4143" stroke="#555555" stroke-width="1.0101"/>
<path d="M52.0518 57.2628L50.1172 65.5543C50.0602 65.7983 50.0211 66.0462 50 66.2958L49.6115 70.9028C49.5658 71.4444 49.9931 71.9093 50.5367 71.9093V71.9093" stroke="#555555" stroke-width="1.0101"/>
<path d="M55.0821 63.3234L55.7426 67.7266C55.9754 69.2783 56.0922 70.8452 56.0922 72.4143V72.4143" stroke="#555555" stroke-width="1.0101"/>
<path d="M40.7219 53.9906L41.4434 53.7285L42.4559 53.9906L40.9491 54.7326L39.9303 55.7476L39.9282 54.7386L40.7219 53.9906Z" fill="#D9D9D9"/>
<path d="M60.477 53.9733L61.1985 53.7113L62.2111 53.9733L60.7042 54.7153L59.6855 55.7303L59.6834 54.7214L60.477 53.9733Z" fill="#D9D9D9"/>
<path d="M8.23338 64.6445L8.68311 63.8473C9.27549 62.7972 10.1754 61.9538 11.2618 61.4308V61.4308" stroke="black" stroke-width="0.618035"/>
<path d="M60.7664 4.07709L59.3265 4.88483C58.6051 5.28953 57.9761 5.84038 57.4797 6.50213V6.50213C57.2405 6.82113 57.034 7.16341 56.8633 7.52378L56.5637 8.15612" stroke="black" stroke-width="0.618035"/>
<path d="M31.3479 9.76303H31.8263C32.7727 9.76303 33.7072 9.97417 34.5617 10.3811V10.3811" stroke="black" stroke-width="0.618035"/>
<path d="M91.1576 55.5842C92.8113 54.5059 94.0452 53.1334 93.8097 50.4424C93.5743 47.7513 92.0192 46.3716 90.4276 45.868" stroke="black" stroke-width="0.741642"/>
<path d="M61.5224 14.5464C61.4355 12.3228 60.7721 10.2564 57.7865 8.53269C54.801 6.80897 52.3598 7.18297 50.8189 8.21734" stroke="black" stroke-width="0.741642"/>
<path d="M10.8291 33.4351C11.4278 36.8301 13.2834 38.4598 15.0663 38.9753" stroke="black" stroke-width="0.741642"/>
<path d="M83.51 75.0888C86.4956 76.8125 88.9368 76.4385 90.4777 75.4041" stroke="black" stroke-width="0.741642"/>
</svg>
